<svg id="svg4593" height="512" viewBox="0 0 16.933333 16.933334" width="512" xmlns="http://www.w3.org/2000/svg" xmlns:svg="http://www.w3.org/2000/svg"><clipPath id="clipPath5337"><path id="rect5339" d="m34.774 274.321h35.435v25.702h-35.435z"/></clipPath><clipPath id="clipPath4542"><path id="rect4544" d="m-535.214-48.848h501.574v185.586h-501.574z"/></clipPath><clipPath id="clipPath11017"><path id="rect11019" d="m36.669 153.503h29.654v28.999h-29.654z" transform="rotate(-90)" vector-effect="none"/></clipPath><clipPath id="clipPath11444"><path id="rect11446" d="m-143.933 265.779h28.84v29.104h-28.84z" transform="rotate(-90)" vector-effect="none"/></clipPath><clipPath id="clipPath11781"><rect id="rect11783" height="32.411" rx=".634" transform="rotate(-90)" width="32.941" x="-145.124" y="181.377"/></clipPath><clipPath id="clipPath11499"><path id="rect11501" d="m-551.399-9.261h16.064v16.347h-16.064z" vector-effect="none"/></clipPath><g id="layer1" transform="translate(0 -280.067)"><path id="path28911" d="m32 1c-4.265702.0002414-7.80089 3.1765105-8.390625 7.2832031-7.481861 2.4767969-13.6706167 8.2085329-16.8027344 15.8691409-3.4384139 1.230198-5.804157 4.445203-5.8066406 8.132812.0017 2.978986 1.5632878 5.701712 4.0546875 7.292969 2.1982016 13.459691 13.5567315 23.410083 26.9453125 23.421875 17.090369 0 24.915375-12.831619 26.933641-23.423828 2.493297-1.589065 4.058357-4.309585 4.0625-7.289063 0-3.780402-2.821577-7.255481-5.802735-8.134765-1.70434-4.166325-4.281901-7.785725-7.519531-10.591797-1.010273-.933665-2.376958.640771-1.310547 1.509765 3.101239 2.687849 5.592437 6.153095 7.171875 10.191407.1124.288156.351804.50809.648438.595703 2.854802.840718 4.809446 3.449932 4.8125 6.425781-.0034 2.429367-1.316055 4.663871-3.4375 5.847656-.271722.150752-.457933.419243-.503906.726563-1.878968 12.73731-12.523695 22.124701-25.054735 22.142578-12.535582-.011339-23.1859197-9.399006-25.0664062-22.140625-.0455407-.306944-.2309795-.575361-.5019532-.726563-2.1193462-1.185864-3.430256-3.419083-3.4316406-5.847656.0020076-2.980762 1.9615563-5.594135 4.8222656-6.43164.2969579-.086676.5370903-.305896.6503906-.59375 2.7703648-7.08009 8.3480768-12.393593 15.0937498-14.841797.466227 4.24046 4.072243 7.558347 8.433594 7.558593h8.304688c3.297176 0 5.394294-2.286058 5.597656-4.658203-.011182-2.737749-1.735952-4.3619094-4.142578-4.6894528-.492896-2.3067968-1.394096-4.236774-2.929688-5.5292968-1.702112-1.4326299-4.013217-2.0996094-6.830078-2.0996094zm0 2c2.506572 0 4.283029.5720247 5.541016 1.6308594 1.257985 1.0588346 2.080002 2.6690553 2.460937 5.0175781.07854.4838275.496167.8394275.986328.8398435 1.951119.09901 2.921875 1.01028 2.921875 2.658203-.117619 1.371969-1.180766 2.830078-3.605468 2.830078h-8.304688c-3.595168-.000188-6.488083-2.893119-6.488281-6.4882808.000197-3.5951622 2.893113-6.4880922 6.488281-6.4882812zm-17.074219 30.298828c-1.363604-.03061-1.363604 2.030615 0 2h8.074219v2.326172c0 3.445191 2.804796 6.25 6.25 6.25h5.875c3.445204 0 6.25-2.804809 6.25-6.25v-2.326172h6.408203c-1.411854 8.887521-7.984333 15.403215-15.783203 15.414063-6.949672-.0076-13.021368-5.10818-15.273438-12.519532-.413241-1.223397-2.247332-.672422-1.917968.576172 2.470104 8.128895 9.258108 13.932626 17.183594 13.94336.0026.00001.0052.00001.0078 0 9.285075-.0076 16.990927-7.947485 18.064453-18.306641.06366-.589759-.397054-1.104996-.990234-1.107422zm10.074219 2h14.375v2.326172c0 2.371805-1.8782 4.25-4.25 4.25h-5.875c-2.3718 0-4.25-1.878195-4.25-4.25z" fill="#00003a" transform="matrix(.265 0 0 .265 0 280.067)" font-variant-ligatures="normal" font-variant-position="normal" font-variant-caps="normal" font-variant-numeric="normal" font-variant-alternates="normal" font-feature-settings="normal" text-indent="0" text-align="start" text-decoration-line="none" text-decoration-style="solid" text-decoration-color="#000000" text-transform="none" text-orientation="mixed" white-space="normal" shape-padding="0" isolation="auto" mix-blend-mode="normal" solid-color="#000000" solid-opacity="1" vector-effect="none"/></g></svg>