<svg id="Layer_1" enable-background="new 0 0 1580 1580" height="512" viewBox="0 0 1580 1580" width="512" xmlns="http://www.w3.org/2000/svg"><g fill="rgb(0,0,0)"><g><path d="m712.5 1376.5h-340.5c-13.3 0-24-10.7-24-24v-995.4c0-13.3 10.7-24 24-24h149.4c13.3 0 24 10.7 24 24s-10.7 24-24 24h-125.4v947.3h316.6c13.3 0 24 10.7 24 24s-10.8 24.1-24.1 24.1z"/><path d="m1151.8 1030.7c-13.3 0-24-10.7-24-24v-625.6h-125.4c-13.3 0-24-10.7-24-24s10.7-24 24-24h149.4c13.3 0 24 10.7 24 24v649.6c0 13.3-10.7 24-24 24z"/><g><g><path d="m1030 593.7h-321c-13.3 0-24-10.7-24-24s10.7-24 24-24h321c13.3 0 24 10.7 24 24s-10.7 24-24 24z"/><path d="m1030 675.3h-321c-13.3 0-24-10.7-24-24s10.7-24 24-24h321c13.3 0 24 10.7 24 24s-10.7 24-24 24z"/></g><g><path d="m926.5 856.2h-217.5c-13.3 0-24-10.7-24-24s10.7-24 24-24h217.5c13.3 0 24 10.7 24 24s-10.7 24-24 24z"/><path d="m811.5 937.8h-102.5c-13.3 0-24-10.7-24-24s10.7-24 24-24h102.4c13.3 0 24 10.7 24 24s-10.7 24-23.9 24z"/></g><path d="m575.4 675.3h-81.6c-13.3 0-24-10.7-24-24v-81.6c0-13.3 10.7-24 24-24h81.6c13.3 0 24 10.7 24 24v81.6c0 13.2-10.7 24-24 24zm-57.6-48h33.6v-33.6h-33.6z"/><path d="m575.4 937.8h-81.6c-13.3 0-24-10.7-24-24v-81.6c0-13.3 10.7-24 24-24h81.6c13.3 0 24 10.7 24 24v81.6c0 13.3-10.7 24-24 24zm-57.6-48h33.6v-33.6h-33.6z"/><path d="m575.4 1200.4h-81.6c-13.3 0-24-10.7-24-24v-81.6c0-13.3 10.7-24 24-24h81.6c13.3 0 24 10.7 24 24v81.6c0 13.2-10.7 24-24 24zm-57.6-48h33.6v-33.6h-33.6z"/></g><path d="m1002.5 424.2h-481.2c-13.3 0-24-10.7-24-24v-216.3c0-13.3 10.7-24 24-24h481.1c13.3 0 24 10.7 24 24v216.4c.1 13.2-10.7 23.9-23.9 23.9zm-457.2-48h433.1v-168.3h-433.1z"/><path d="m755.3 1472.2h-479c-13.3 0-24-10.7-24-24v-1186.8c0-13.3 10.7-24 24-24h245.1c13.3 0 24 10.7 24 24s-10.7 24-24 24h-221.1v1138.7h455c13.3 0 24 10.7 24 24s-10.7 24.1-24 24.1z"/><path d="m1247.5 1104.6c-13.3 0-24-10.7-24-24v-795.2h-221.1c-13.3 0-24-10.7-24-24s10.7-24 24-24h245.1c13.3 0 24 10.7 24 24v819.2c0 13.3-10.7 24-24 24z"/><path d="m865.3 207.9c-13.3 0-24-10.7-24-24v-34.5c0-21.2-8.3-41.2-23.3-56.2-14.8-14.8-34.6-23.1-55.6-23.3-.2 0-.4 0-.6 0-20.7 0-40.3 8.2-55.3 23.1-15.6 15.4-24.1 35.9-24.1 57.5v33.2c0 13.3-10.7 24-24 24s-24-10.7-24-24v-33.2c0-34.6 13.6-67.1 38.3-91.6 24.1-23.9 55.7-37 89.1-37h1c33.7.3 65.3 13.5 89.1 37.3 24.1 24.1 37.3 56.1 37.3 90.1v34.5c.1 13.3-10.6 24.1-23.9 24.1z"/></g><g><path d="m1103.1 1558c-40.6 0-80.4-14.1-115-40.8-10.5-8.1-12.4-23.2-4.3-33.7s23.2-12.4 33.7-4.3c26.1 20.2 55.7 30.8 85.6 30.8 45.8 0 89.4-24.4 122.6-68.8 34.8-46.4 54-108.5 54-174.8s-19.2-128.4-54-174.8c-33.2-44.4-76.8-68.8-122.6-68.8-29.9 0-59.5 10.7-85.6 30.8-10.5 8.1-25.6 6.2-33.7-4.3s-6.2-25.6 4.3-33.7c34.6-26.7 74.3-40.8 115-40.8 31.3 0 61.5 8.1 89.9 24.1 26.8 15.1 50.7 36.6 71.2 63.9 41 54.7 63.6 127 63.6 203.6s-22.6 149-63.6 203.6c-20.4 27.3-44.4 48.7-71.2 63.9-28.4 16-58.6 24.1-89.9 24.1z"/><path d="m902.5 1558c-31.3 0-61.5-8.1-89.9-24.1-26.8-15.1-50.7-36.6-71.2-63.9-41-54.7-63.6-127-63.6-203.6s22.6-149 63.6-203.6c20.4-27.3 44.4-48.7 71.2-63.9 28.4-16 58.6-24.1 89.9-24.1 25 0 49.7 5.4 73.1 15.7.2-46 10.4-114.2 62.7-156.4 10.3-8.3 25.4-6.7 33.7 3.6s6.7 25.4-3.6 33.7c-24.9 20.1-39.6 52.6-43.7 96.4-3.2 34.5 1.7 62.1 1.8 62.4 1.8 9.8-2.7 19.6-11.2 24.8s-19.3 4.6-27.1-1.5c-26.1-20.2-55.7-30.8-85.6-30.8-45.8 0-89.4 24.4-122.6 68.8-34.8 46.4-54 108.5-54 174.8s19.2 128.4 54 174.8c33.2 44.4 76.8 68.8 122.6 68.8 29.9 0 59.5-10.7 85.6-30.8 10.5-8.1 25.6-6.2 33.7 4.3s6.2 25.6-4.3 33.7c-34.7 26.8-74.4 40.9-115.1 40.9z"/></g></g></svg>