<?xml version="1.0" encoding="UTF-8"?>
<svg xmlns="http://www.w3.org/2000/svg" id="Icons" viewBox="0 0 60 60" width="512" height="512"><path d="M57,41H55V36.5A3.5,3.5,0,0,0,51.5,33a3.455,3.455,0,0,0-1.514.359,3.465,3.465,0,0,0-.8-2.074A45.828,45.828,0,0,0,50,23c0-8.271-5.383-15-12-15a9.8,9.8,0,0,0-4.531,1.107c-.055.028-.113.047-.169.073A9.239,9.239,0,0,1,35.141,5.1,2.988,2.988,0,0,0,35.122.89,3.067,3.067,0,0,0,30.909.86,12.039,12.039,0,0,0,28.98,3.638C25.62.89,20.656.905,18.6,1.052a1.712,1.712,0,0,0-1.323.775,1.693,1.693,0,0,0-.16,1.524,33.388,33.388,0,0,0,2.355,4.992C14.064,9.8,10,15.815,10,23a51.62,51.62,0,0,0,.686,8.438,3.478,3.478,0,0,0-.672,1.921A3.455,3.455,0,0,0,8.5,33,3.5,3.5,0,0,0,5,36.5V41H3a3,3,0,0,0-3,3v2a3,3,0,0,0,3,3H5v4.5A3.5,3.5,0,0,0,8.5,57a3.455,3.455,0,0,0,1.514-.359A3.494,3.494,0,0,0,17,56.5V49H43v7.5a3.494,3.494,0,0,0,6.986.141A3.455,3.455,0,0,0,51.5,57,3.5,3.5,0,0,0,55,53.5V49h2a3,3,0,0,0,3-3V44A3,3,0,0,0,57,41ZM3,47a1,1,0,0,1-1-1V44a1,1,0,0,1,1-1H5v4ZM32.3,2.3a.991.991,0,0,1,1.406.009A.98.98,0,0,1,34,3a1.016,1.016,0,0,1-.314.729,11.634,11.634,0,0,0-2.522,6.1,7.735,7.735,0,0,1-2.033.051A13.306,13.306,0,0,1,32.3,2.3Zm-13.173.728c1.855-.089,6.363,0,8.992,2.53a17.7,17.7,0,0,0-.942,3.835c-.216-.086-.432-.172-.64-.278A9.814,9.814,0,0,0,22,8c-.129,0-.255.019-.383.024A29.5,29.5,0,0,1,19.129,3.024ZM8.5,55A1.5,1.5,0,0,1,7,53.5v-17a1.5,1.5,0,0,1,3,0v17A1.5,1.5,0,0,1,8.5,55ZM15,56.5a1.5,1.5,0,0,1-3,0v-23a1.5,1.5,0,0,1,3,0ZM17,47V43H43v4ZM43,33.5V41H17V33.5A3.5,3.5,0,0,0,13.5,30a3.467,3.467,0,0,0-.987.159A50.15,50.15,0,0,1,12,23c0-7.168,4.486-13,10-13a7.83,7.83,0,0,1,3.629.893,9.72,9.72,0,0,0,8.75,0A7.818,7.818,0,0,1,38,10c5.514,0,10,5.832,10,13a43.179,43.179,0,0,1-.641,7.119A3.459,3.459,0,0,0,43,33.5Zm5,23a1.5,1.5,0,0,1-3,0v-23a1.5,1.5,0,0,1,3,0Zm5-3a1.5,1.5,0,0,1-3,0v-17a1.5,1.5,0,0,1,3,0ZM58,46a1,1,0,0,1-1,1H55V43h2a1,1,0,0,1,1,1Z"/><path d="M19.6,12.52c-2.492,1.1-4.449,3.815-5.236,7.257a1,1,0,0,0,.752,1.2,1.019,1.019,0,0,0,.224.025,1,1,0,0,0,.974-.777c.637-2.788,2.207-5.039,4.094-5.875A1,1,0,1,0,19.6,12.52Z"/></svg>
