<?xml version="1.0" encoding="UTF-8" standalone="no"?>
<!-- Created with Inkscape (http://www.inkscape.org/) -->

<svg
   version="1.1"
   id="svg2829"
   xml:space="preserve"
   width="682.66669"
   height="682.66669"
   viewBox="0 0 682.66669 682.66669"
   xmlns="http://www.w3.org/2000/svg"
   xmlns:svg="http://www.w3.org/2000/svg"><defs
     id="defs2833"><clipPath
       clipPathUnits="userSpaceOnUse"
       id="clipPath2843"><path
         d="M 0,512 H 512 V 0 H 0 Z"
         id="path2841" /></clipPath></defs><g
     id="g2835"
     transform="matrix(1.3333333,0,0,-1.3333333,0,682.66667)"><g
       id="g2837"><g
         id="g2839"
         clip-path="url(#clipPath2843)"><g
           id="g2845"
           transform="translate(33,297.7676)"><path
             d="m 0,0 v 147.229 c 0,19.757 16.179,35.943 35.956,35.943 H 92.227 M 224.941,-233.259 H 35.956 C 16.179,-233.259 0,-217.073 0,-197.287 v 117.408 m 250.074,263.051 h 56.299 c 19.777,0 35.955,-16.186 35.955,-35.943 V -27.978"
             style="fill:none;stroke:#000000;stroke-width:20.008;stroke-linecap:round;stroke-linejoin:round;stroke-miterlimit:10;stroke-dasharray:none;stroke-opacity:1"
             id="path2847" /></g><g
           id="g2849"
           transform="translate(89.7524,188.126)"><path
             d="M 0,0 C 6.999,29.734 36.749,48.188 66.5,41.215 96.222,34.241 114.667,4.45 107.697,-25.285 100.727,-55.048 70.948,-73.501 41.226,-66.5 11.475,-59.526 -6.97,-29.764 0,0 Z"
             style="fill:none;stroke:#000000;stroke-width:20.008;stroke-linecap:round;stroke-linejoin:round;stroke-miterlimit:10;stroke-dasharray:none;stroke-opacity:1"
             id="path2851" /></g><g
           id="g2853"
           transform="translate(97.3745,383.457)"><path
             d="M 0,0 H 226.954"
             style="fill:none;stroke:#000000;stroke-width:20.008;stroke-linecap:round;stroke-linejoin:round;stroke-miterlimit:10;stroke-dasharray:none;stroke-opacity:1"
             id="path2855" /></g><g
           id="g2857"
           transform="translate(97.3745,331.2725)"><path
             d="M 0,0 H 183.064"
             style="fill:none;stroke:#000000;stroke-width:20.008;stroke-linecap:round;stroke-linejoin:round;stroke-miterlimit:10;stroke-dasharray:none;stroke-opacity:1"
             id="path2859" /></g><g
           id="g2861"
           transform="translate(123.8945,173.1592)"><path
             d="M 0,0 13.005,-12.217 39.441,16.865"
             style="fill:none;stroke:#000000;stroke-width:20.008;stroke-linecap:round;stroke-linejoin:round;stroke-miterlimit:10;stroke-dasharray:none;stroke-opacity:1"
             id="path2863" /></g><g
           id="g2865"
           transform="translate(133.5283,502)"><path
             d="m 0,0 h 141.244 c 4.562,0 8.302,-3.741 8.302,-8.306 v -27.212 c 0,-4.563 -3.74,-8.305 -8.302,-8.305 H 0 c -4.562,0 -8.302,3.742 -8.302,8.305 V -8.306 C -8.302,-3.741 -4.562,0 0,0 Z"
             style="fill:none;stroke:#000000;stroke-width:20.008;stroke-linecap:round;stroke-linejoin:round;stroke-miterlimit:10;stroke-dasharray:none;stroke-opacity:1"
             id="path2867" /></g><g
           id="g2869"
           transform="translate(97.3745,279.0879)"><path
             d="M 0,0 H 154.589"
             style="fill:none;stroke:#000000;stroke-width:20.008;stroke-linecap:round;stroke-linejoin:round;stroke-miterlimit:10;stroke-dasharray:none;stroke-opacity:1"
             id="path2871" /></g><g
           id="g2873"
           transform="translate(361.8701,223.2461)"><path
             d="M 0,0 C -151.784,53.12 -150.509,-213.246 -27.937,-213.246 H 0 27.966 C 150.537,-213.246 151.812,53.12 0.028,0 Z"
             style="fill:none;stroke:#000000;stroke-width:20.008;stroke-linecap:round;stroke-linejoin:round;stroke-miterlimit:10;stroke-dasharray:none;stroke-opacity:1"
             id="path2875" /></g><g
           id="g2877"
           transform="translate(361.8701,223.2461)"><path
             d="m 0,0 v 0 c 0.255,0.028 1.983,51.307 -53.353,48.613 2.918,-19.558 10.371,-34.128 23.715,-41.98"
             style="fill:none;stroke:#000000;stroke-width:20.008;stroke-linecap:round;stroke-linejoin:round;stroke-miterlimit:10;stroke-dasharray:none;stroke-opacity:1"
             id="path2879" /></g><g
           id="g2881"
           transform="translate(361.8984,223.2461)"><path
             d="M 0,0 C 0,0 -3.599,78.972 82.14,74.776 77.181,41.782 63.864,18.057 39.469,6.974"
             style="fill:none;stroke:#000000;stroke-width:20.008;stroke-linecap:round;stroke-linejoin:round;stroke-miterlimit:10;stroke-dasharray:none;stroke-opacity:1"
             id="path2883" /></g><g
           id="g2885"
           transform="translate(33,257.8281)"><path
             d="M 0,0 V 0.198"
             style="fill:none;stroke:#000000;stroke-width:20.008;stroke-linecap:round;stroke-linejoin:round;stroke-miterlimit:10;stroke-dasharray:none;stroke-opacity:1"
             id="path2887" /></g></g></g></g></svg>
