<?xml version="1.0" encoding="UTF-8"?>
<svg xmlns="http://www.w3.org/2000/svg" xmlns:xlink="http://www.w3.org/1999/xlink" version="1.1" id="Capa_1" x="0px" y="0px" viewBox="0 0 512 512" style="enable-background:new 0 0 512 512;" xml:space="preserve" width="512" height="512">
<g>
	<g>
		<g>
			<path style="fill:none;stroke:#000000;stroke-width:15;stroke-linecap:round;stroke-linejoin:round;stroke-miterlimit:10;" d="&#10;&#9;&#9;&#9;&#9;M347.494,7.501c-42.215-0.168-76.489,34.004-76.489,76.18v13.688c0,6.627,5.373,12,12,12h11.82&#10;&#9;&#9;&#9;&#9;c42.073,0,76.18-34.107,76.18-76.18V31.32C371.005,18.286,360.528,7.552,347.494,7.501z"/>
			
				<path style="fill:none;stroke:#000000;stroke-width:15;stroke-linecap:round;stroke-linejoin:round;stroke-miterlimit:10;stroke-dasharray:580,30,999,0,1000,0;" d="&#10;&#9;&#9;&#9;&#9;M306.302,74.071l-23.582,23.582c-7.501,7.501-11.716,17.676-11.716,28.284v32.081"/>
			<g>
				
					<line style="fill:none;stroke:#000000;stroke-width:15;stroke-linecap:round;stroke-linejoin:round;stroke-miterlimit:10;" x1="208.556" y1="227.06" x2="208.556" y2="239.06"/>
				
					<line style="fill:none;stroke:#000000;stroke-width:15;stroke-linecap:round;stroke-linejoin:round;stroke-miterlimit:10;" x1="333.453" y1="227.06" x2="333.453" y2="239.06"/>
				<path style="fill:none;stroke:#000000;stroke-width:15;stroke-linecap:round;stroke-linejoin:round;stroke-miterlimit:10;" d="&#10;&#9;&#9;&#9;&#9;&#9;M254.541,238.703c4.003,4.594,9.892,7.501,16.464,7.501s12.461-2.907,16.464-7.501"/>
			</g>
		</g>
		
			<path style="fill:none;stroke:#000000;stroke-width:15;stroke-linecap:round;stroke-linejoin:round;stroke-miterlimit:10;stroke-dasharray:580,30,999,0,1000,0;" d="&#10;&#9;&#9;&#9;M149.678,478.938c21.146,15.876,44.993,25.562,70.225,25.562h102.203c86.34,0,157.635-114.709,157.635-202.364&#10;&#9;&#9;&#9;c0-79.969-59.657-146.168-137.084-156.258c-24.979-3.251-49.091-0.593-71.652,7.14c-16.031-5.494-33.208-8.517-51.101-8.517&#10;&#9;&#9;&#9;c-87.059,0-157.635,70.575-157.635,157.636c0,26.59,6.583,55.814,18.209,83.583"/>
	</g>
	
		<path style="fill:none;stroke:#000000;stroke-width:15;stroke-linecap:round;stroke-linejoin:round;stroke-miterlimit:10;stroke-dasharray:230,30,999,0,1000,0;" d="&#10;&#9;&#9;M163.977,385.718h-12.937v-12.937c0-19.604-15.943-35.282-35.281-35.282c-19.485,0-35.282,15.796-35.282,35.282v12.937H67.541&#10;&#9;&#9;c-19.485,0-35.281,15.796-35.281,35.282s15.796,35.282,35.281,35.282h12.937v12.937c0,19.485,15.796,35.282,35.282,35.282&#10;&#9;&#9;c6.429,0,12.45-1.728,17.641-4.732c10.543-6.101,17.641-17.493,17.641-30.55v-12.937h12.937c19.485,0,35.282-15.796,35.282-35.282&#10;&#9;&#9;S183.463,385.718,163.977,385.718z"/>
	
		<line style="fill:none;stroke:#000000;stroke-width:15;stroke-linecap:round;stroke-linejoin:round;stroke-miterlimit:10;" x1="80.477" y1="385.718" x2="82.777" y2="388.018"/>
	
		<line style="fill:none;stroke:#000000;stroke-width:15;stroke-linecap:round;stroke-linejoin:round;stroke-miterlimit:10;" x1="151.041" y1="385.718" x2="148.741" y2="388.018"/>
	
		<line style="fill:none;stroke:#000000;stroke-width:15;stroke-linecap:round;stroke-linejoin:round;stroke-miterlimit:10;" x1="80.477" y1="456.282" x2="82.977" y2="453.782"/>
	
		<line style="fill:none;stroke:#000000;stroke-width:15;stroke-linecap:round;stroke-linejoin:round;stroke-miterlimit:10;" x1="151.041" y1="456.282" x2="148.541" y2="453.782"/>
</g>















</svg>
