<?xml version="1.0" encoding="UTF-8" standalone="no"?>
<!-- Created with Inkscape (http://www.inkscape.org/) -->

<svg
   version="1.1"
   id="svg2664"
   xml:space="preserve"
   width="682.66669"
   height="682.66669"
   viewBox="0 0 682.66669 682.66669"
   xmlns="http://www.w3.org/2000/svg"
   xmlns:svg="http://www.w3.org/2000/svg"><defs
     id="defs2668"><clipPath
       clipPathUnits="userSpaceOnUse"
       id="clipPath2678"><path
         d="M 0,512 H 512 V 0 H 0 Z"
         id="path2676" /></clipPath></defs><g
     id="g2670"
     transform="matrix(1.3333333,0,0,-1.3333333,0,682.66667)"><g
       id="g2672"><g
         id="g2674"
         clip-path="url(#clipPath2678)"><g
           id="g2680"
           transform="translate(297.4346,323.1377)"><path
             d="m 0,0 c 9.354,1.332 18.085,1.445 24.804,-0.481 26.9,-7.71 36.34,-30.416 29.82,-53.236 -6.549,-22.79 -26.617,-37.049 -53.49,-29.338 -21.656,6.207 -49.435,41.867 -60.321,56.778 -3.543,4.847 -2.551,7.341 2.778,9.609 5.499,2.354 13.89,5.613 23.414,8.674"
             style="fill:none;stroke:#000000;stroke-width:14.995;stroke-linecap:round;stroke-linejoin:round;stroke-miterlimit:10;stroke-dasharray:none;stroke-opacity:1"
             id="path2682" /></g><g
           id="g2684"
           transform="translate(443.8164,190.0518)"><path
             d="m 0,0 c -31.067,17.234 -53.972,0 -64.46,-11.084 -3.288,-3.486 -5.13,-3.345 -8.418,0.028 -13.436,13.777 -46.093,37.587 -90.172,-10.006 -56.408,-60.946 17.434,-187.74 88.641,-156.615 5.017,2.182 6.519,2.182 11.565,-0.029 70.98,-31.067 144.595,95.074 88.98,156.19"
             style="fill:none;stroke:#000000;stroke-width:14.995;stroke-linecap:round;stroke-linejoin:round;stroke-miterlimit:10;stroke-dasharray:none;stroke-opacity:1"
             id="path2686" /></g><g
           id="g2688"
           transform="translate(375.1338,176.417)"><path
             d="M 0,0 C 0,0 -20.241,81.637 38.749,116.787"
             style="fill:none;stroke:#000000;stroke-width:14.995;stroke-linecap:round;stroke-linejoin:round;stroke-miterlimit:10;stroke-dasharray:none;stroke-opacity:1"
             id="path2690" /></g><g
           id="g2692"
           transform="translate(287.4004,289.9443)"><path
             d="M 0,0 C 0,0 62.106,-8.277 87.393,-52.866"
             style="fill:none;stroke:#000000;stroke-width:14.995;stroke-linecap:round;stroke-linejoin:round;stroke-miterlimit:10;stroke-dasharray:none;stroke-opacity:1"
             id="path2694" /></g><g
           id="g2696"
           transform="translate(22.502,267.7207)"><path
             d="m 0,0 v 166.338 c 0,12.33 10.091,22.422 22.422,22.422 H 62.334 M 261.95,-222.719 H 22.422 C 10.091,-222.719 0,-212.628 0,-200.297 v 166.338 m 308.297,8.39 V -70.47 m -62.334,259.23 h 39.912 c 12.33,0 22.422,-10.092 22.422,-22.422 V 51.731"
             style="fill:none;stroke:#000000;stroke-width:14.995;stroke-linecap:round;stroke-linejoin:round;stroke-miterlimit:10;stroke-dasharray:none;stroke-opacity:1"
             id="path2698" /></g><g
           id="g2700"
           transform="translate(108.8457,480.4902)"><path
             d="m 0,0 h 19.332 c 6.321,0 7.484,2.834 9.185,7.767 3.316,9.411 12.245,16.243 22.733,16.243 h 33.109 c 10.516,0 19.531,-6.861 22.734,-16.328 C 108.823,2.636 110.013,0 116.278,0 h 19.304 c 13.209,0 24.037,-10.801 24.037,-24.01 0,-13.238 -10.828,-24.038 -24.037,-24.038 H 0 c -13.182,0 -24.01,10.8 -24.01,24.038 C -24.01,-10.801 -13.21,0 0,0 Z"
             style="fill:none;stroke:#000000;stroke-width:14.995;stroke-linecap:round;stroke-linejoin:round;stroke-miterlimit:10;stroke-dasharray:none;stroke-opacity:1"
             id="path2702" /></g><g
           id="g2704"
           transform="translate(67.5444,175.2549)"><path
             d="M 0,0 H 179.094 M 0,43.682 H 196.101 M 0,87.363 H 158.713 M 0,131.045 H 138.813 M 0,174.727 H 189.78 M 91.049,218.41 h 36.114 M 0,-43.684 h 164.07"
             style="fill:none;stroke:#000000;stroke-width:14.995;stroke-linecap:round;stroke-linejoin:round;stroke-miterlimit:10;stroke-dasharray:none;stroke-opacity:1"
             id="path2706" /></g></g></g></g></svg>
