<?xml version="1.0" encoding="UTF-8" standalone="no"?>
<!-- Created with Inkscape (http://www.inkscape.org/) -->

<svg
   version="1.1"
   id="svg1866"
   xml:space="preserve"
   width="682.66669"
   height="682.66669"
   viewBox="0 0 682.66669 682.66669"
   xmlns="http://www.w3.org/2000/svg"
   xmlns:svg="http://www.w3.org/2000/svg"><defs
     id="defs1870"><clipPath
       clipPathUnits="userSpaceOnUse"
       id="clipPath1880"><path
         d="M 0,512 H 512 V 0 H 0 Z"
         id="path1878" /></clipPath></defs><g
     id="g1872"
     transform="matrix(1.3333333,0,0,-1.3333333,0,682.66667)"><g
       id="g1874"><g
         id="g1876"
         clip-path="url(#clipPath1880)"><g
           id="g1882"
           transform="translate(240.5801,266.98)"><path
             d="m 0,0 c 0.28,-1.62 0.42,-3.28 0.42,-4.98 0,-16.57 -13.43,-30 -30,-30 -16.57,0 -30,13.43 -30,30 0,1.7 0.14,3.36 0.42,4.98 2.37,14.2 14.71,25.02 29.58,25.02 C -14.71,25.02 -2.37,14.2 0,0 Z"
             style="fill:none;stroke:#000000;stroke-width:20;stroke-linecap:round;stroke-linejoin:round;stroke-miterlimit:10;stroke-dasharray:none;stroke-opacity:1"
             id="path1884" /></g><g
           id="g1886"
           transform="translate(181.4102,266.98)"><path
             d="m 0,0 c -35.17,12.24 -60.41,45.68 -60.41,85.02 0,4.82 0.38,9.55 1.12,14.17 6.78,42.98 43.99,75.83 88.88,75.83 10.27,0 20.13,-1.72 29.32,-4.89 35.31,-12.15 60.68,-45.67 60.68,-85.11 C 119.59,45.68 94.35,12.24 59.18,0"
             style="fill:none;stroke:#000000;stroke-width:20;stroke-linecap:round;stroke-linejoin:round;stroke-miterlimit:10;stroke-dasharray:none;stroke-opacity:1"
             id="path1888" /></g><g
           id="g1890"
           transform="translate(240.3198,437.1099)"><path
             d="m 0,0 c 0.45,-3.3 0.68,-6.68 0.68,-10.11 0,-41.42 -33.58,-75 -75,-75 -16.39,0 -31.54,5.26 -43.88,14.17 0,0.01 -0.01,0.01 -0.01,0.01"
             style="fill:none;stroke:#000000;stroke-width:20;stroke-linecap:round;stroke-linejoin:round;stroke-miterlimit:10;stroke-dasharray:none;stroke-opacity:1"
             id="path1892" /></g><g
           id="g1894"
           transform="translate(331,69.98)"><path
             d="m 0,0 v -59.98 h 60 v 60 h 60 v 60 H 60 v 60 H 0 v -60 h -60 v -60 H 0 Z"
             style="fill:none;stroke:#000000;stroke-width:20;stroke-linecap:round;stroke-linejoin:round;stroke-miterlimit:10;stroke-dasharray:none;stroke-opacity:1"
             id="path1896" /></g><g
           id="g1898"
           transform="translate(221,502)"><path
             d="m 0,0 c 0,-5.523 -4.477,-10 -10,-10 -5.523,0 -10,4.477 -10,10 0,5.523 4.477,10 10,10 C -4.477,10 0,5.523 0,0"
             style="fill:#000000;fill-opacity:1;fill-rule:nonzero;stroke:none"
             id="path1900" /></g><g
           id="g1902"
           transform="translate(361,190)"><path
             d="m 0,0 v 162 c 0,67.346 -44.387,124.328 -105.499,143.288"
             style="fill:none;stroke:#000000;stroke-width:20;stroke-linecap:round;stroke-linejoin:round;stroke-miterlimit:10;stroke-dasharray:none;stroke-opacity:1"
             id="path1904" /></g><g
           id="g1906"
           transform="translate(166.4995,495.2881)"><path
             d="m 0,0 c -61.113,-18.96 -105.5,-75.942 -105.5,-143.288 v -192 c 0,-82.84 67.161,-150 150,-150 49.071,0 92.63,23.56 120,59.98 l 0.01,0.01"
             style="fill:none;stroke:#000000;stroke-width:20;stroke-linecap:round;stroke-linejoin:round;stroke-miterlimit:10;stroke-dasharray:none;stroke-opacity:1"
             id="path1908" /></g></g></g></g></svg>
